<svg width="166" height="36" fill="none" xmlns="http://www.w3.org/2000/svg"><path d="M54.288 24h2.704l-3.76-11.2h-3.328L46.144 24h2.688l.704-2.24h4.048l.704 2.24zm-4.096-4.416l1.264-4.048h.208l1.264 4.048h-2.736zM62.981 15.84c-1.344 0-2.016.56-2.544 1.264h-.192L59.909 16h-2.016v8h2.56v-3.184c0-1.936 1.024-2.672 2.208-2.672.336 0 .784.096.944.144V15.84h-.624zM70.302 23.696l-.464-1.904c-.16.08-.447.24-.783.24-.433 0-.705-.288-.705-.896v-3.184h2.032V16H68.35v-2.016h-2.24v1.056c0 .64-.431 1.104-1.263 1.104h-.528v1.808h1.584v3.424c0 2.144 1.12 2.784 2.671 2.784.769 0 1.36-.24 1.728-.464zM75.855 15.824c-.928 0-1.616.352-1.984.784v-4h-2.384V24h1.888l.24-.8h.24c.4.496 1.024.944 2.112.944 1.984 0 3.68-1.552 3.68-4.128 0-2.624-1.76-4.192-3.792-4.192zm-.304 6.144c-.992 0-1.68-.832-1.68-1.984 0-1.152.688-1.968 1.68-1.968s1.696.816 1.696 1.968c0 1.152-.704 1.984-1.696 1.984zM84.783 24.16c2.352 0 4.288-1.648 4.288-4.176 0-2.512-1.936-4.144-4.288-4.144-2.336 0-4.32 1.632-4.32 4.16 0 2.512 1.984 4.16 4.32 4.16zm0-2.16c-1.104 0-1.888-.848-1.888-2 0-1.136.784-2 1.888-2 1.104 0 1.856.864 1.856 2 0 1.152-.736 2-1.856 2zM97.151 21.376V19.2c0-2.304-1.568-3.36-3.488-3.36-2.08 0-3.376 1.216-3.504 2.928h2.304c.032-.432.368-1.104 1.216-1.104.64 0 1.136.4 1.136 1.2v.128l-1.472.112c-2.144.176-3.552.976-3.552 2.688 0 1.52 1.136 2.368 2.896 2.368 1.264 0 2.208-.464 2.816-1.184.288.8 1.072 1.024 1.84 1.024h.448v-1.984c-.464 0-.64-.16-.64-.64zm-4.08.88c-.512 0-.832-.24-.832-.624 0-.464.528-.832 1.744-.928l.832-.064c-.048.976-.896 1.616-1.744 1.616zM103.934 15.84c-1.344 0-2.016.56-2.544 1.264h-.192L100.862 16h-2.016v8h2.56v-3.184c0-1.936 1.024-2.672 2.208-2.672.336 0 .784.096.944.144V15.84h-.624zM108.849 15.824c-2.032 0-3.792 1.568-3.792 4.192 0 2.576 1.696 4.128 3.664 4.128 1.088 0 1.712-.448 2.128-.944h.224l.24.8h1.888V12.608h-2.384v4c-.368-.432-1.04-.784-1.968-.784zm.288 6.144c-.976 0-1.68-.832-1.68-1.984 0-1.152.688-1.968 1.68-1.968 1.008 0 1.68.816 1.68 1.968 0 1.152-.672 1.984-1.68 1.984zM127.017 20.96c0-2.032-1.584-2.944-3.616-3.824-1.2-.496-1.728-.784-1.728-1.376 0-.608.496-.976 1.2-.976.96 0 1.456.576 1.52 1.328h2.32c0-1.888-1.408-3.472-3.856-3.472-2.08 0-3.728 1.184-3.728 3.312 0 1.856 1.776 2.672 3.264 3.296 1.248.48 2.032.912 2.032 1.68 0 .72-.624 1.072-1.344 1.072-1.2 0-1.792-.704-1.792-1.776h-2.48c0 2.288 1.536 3.936 4.192 3.936 2.32 0 4.016-1.072 4.016-3.2zM133.349 23.696l-.464-1.904c-.16.08-.448.24-.784.24-.432 0-.704-.288-.704-.896v-3.184h2.032V16h-2.032v-2.016h-2.24v1.056c0 .64-.432 1.104-1.264 1.104h-.528v1.808h1.584v3.424c0 2.144 1.12 2.784 2.672 2.784.768 0 1.36-.24 1.728-.464zM137.687 24.16c1.488 0 2.048-.656 2.416-1.12h.192l.304.96h2.016v-8h-2.544v4.016c0 1.36-.704 1.904-1.504 1.904-.896 0-1.536-.624-1.536-1.92v-4h-2.544v4.384c0 2.48 1.328 3.776 3.2 3.776zM147.38 15.824c-2.032 0-3.792 1.568-3.792 4.192 0 2.576 1.696 4.128 3.664 4.128 1.088 0 1.712-.448 2.128-.944h.224l.24.8h1.888V12.608h-2.384v4c-.368-.432-1.04-.784-1.968-.784zm.288 6.144c-.976 0-1.68-.832-1.68-1.984 0-1.152.688-1.968 1.68-1.968 1.008 0 1.68.816 1.68 1.968 0 1.152-.672 1.984-1.68 1.984zM154.44 15.2c.816 0 1.488-.704 1.488-1.488 0-.864-.672-1.504-1.488-1.504s-1.52.64-1.52 1.504c0 .784.704 1.488 1.52 1.488zm1.184.8h-2.416v8h2.416v-8zM161.236 24.16c2.352 0 4.288-1.648 4.288-4.176 0-2.512-1.936-4.144-4.288-4.144-2.336 0-4.32 1.632-4.32 4.16 0 2.512 1.984 4.16 4.32 4.16zm0-2.16c-1.104 0-1.888-.848-1.888-2 0-1.136.784-2 1.888-2 1.104 0 1.856.864 1.856 2 0 1.152-.736 2-1.856 2z" fill="#28304E"></path><path fill-rule="evenodd" clip-rule="evenodd" d="M8.974.477C4.333.88.718 4.591.39 9.238.179 12.211 0 15.478 0 18c0 2.523.179 5.788.389 8.762.329 4.647 3.944 8.359 8.585 8.76 2.985.26 6.313.478 9.026.478s6.04-.219 9.026-.477c4.641-.402 8.256-4.114 8.585-8.761.21-2.974.389-6.24.389-8.762 0-2.523-.179-5.789-.389-8.762-.329-4.647-3.944-8.359-8.585-8.76C24.04.217 20.713 0 18 0s-6.04.219-9.026.477zM21.053 9h-3.696c-.12 0-.241.08-.241.24 0 .08.04.16.12.2A5.992 5.992 0 0 1 21.012 15v6a5.96 5.96 0 0 1-2.932 5.16c-.02 0-.03.01-.04.02-.01.01-.02.02-.04.02-.121.08-.201.2-.201.36 0 .24.2.44.442.44h2.731c3.335 0 6.026-2.68 6.026-6v-6c.08-3.32-2.611-6-5.945-6zm-5.906 4.72a5.978 5.978 0 0 1 1.808-3.12c.12-.08.08-.28 0-.36-.563-.44-1.245-.76-1.928-1a3.169 3.169 0 0 0-1.728 0c-2.049.64-3.575 2.24-4.098 4.28 0 .003 0 .008-.002.014l-.003.015c-.028.123-.128.571.447.571h5.102c.322 0 .402-.36.402-.4zm-.04 1.28h3.616c.12 0 .24.08.16.24a.231.231 0 0 1-.066.162.217.217 0 0 1-.054.038A5.992 5.992 0 0 0 14.986 21c0 1.76.764 3.36 1.969 4.44.12.08.12.24 0 .32-.804.64-1.768 1.04-2.812 1.2C11.21 26.52 8.96 24 9 20.96c.04-3.32 2.773-5.96 6.107-5.96z" fill="#28304E"></path></svg>